<?xml version="1.0" encoding="UTF-8" standalone="no"?>
<svg
   xmlns:dc="http://purl.org/dc/elements/1.1/"
   xmlns:cc="http://creativecommons.org/ns#"
   xmlns:rdf="http://www.w3.org/1999/02/22-rdf-syntax-ns#"
   xmlns:svg="http://www.w3.org/2000/svg"
   xmlns="http://www.w3.org/2000/svg"
   xmlns:sodipodi="http://sodipodi.sourceforge.net/DTD/sodipodi-0.dtd"
   xmlns:inkscape="http://www.inkscape.org/namespaces/inkscape"
   width="210mm"
   height="297mm"
   viewBox="0 0 210 297"
   version="1.1"
   id="svg33868"
   inkscape:version="1.0.1 (3bc2e813f5, 2020-09-07)"
   sodipodi:docname="Super_Expander_label.svg">
  <defs
     id="defs33862" />
  <sodipodi:namedview
     id="base"
     pagecolor="#ffffff"
     bordercolor="#666666"
     borderopacity="1.0"
     inkscape:pageopacity="0.0"
     inkscape:pageshadow="2"
     inkscape:zoom="3.3208043"
     inkscape:cx="195.80953"
     inkscape:cy="200.64729"
     inkscape:document-units="mm"
     inkscape:current-layer="layer1"
     showgrid="false"
     inkscape:window-width="2133"
     inkscape:window-height="1171"
     inkscape:window-x="2551"
     inkscape:window-y="-9"
     inkscape:window-maximized="1"
     inkscape:document-rotation="0" />
  <metadata
     id="metadata33865">
    <rdf:RDF>
      <cc:Work
         rdf:about="">
        <dc:format>image/svg+xml</dc:format>
        <dc:type
           rdf:resource="http://purl.org/dc/dcmitype/StillImage" />
        <dc:title />
      </cc:Work>
    </rdf:RDF>
  </metadata>
  <g
     inkscape:label="Ebene 1"
     inkscape:groupmode="layer"
     id="layer1">
    <g
       id="g38779"
       inkscape:export-xdpi="299"
       inkscape:export-ydpi="299">
      <rect
         ry="2"
         rx="2"
         y="36.08754"
         x="14.285983"
         height="11.5"
         width="99"
         id="rect23853-7"
         style="opacity:0.98999999;fill:none;fill-opacity:1;fill-rule:nonzero;stroke:#000000;stroke-width:0.1;stroke-linecap:round;stroke-linejoin:miter;stroke-miterlimit:10;stroke-dasharray:none;stroke-dashoffset:0;stroke-opacity:1;paint-order:markers fill stroke" />
      <g
         transform="translate(-0.69466264)"
         id="g38734">
        <g
           id="g22652-4-9"
           transform="matrix(0.54239915,0,0,0.5397058,-34.378412,1.8997161)"
           style="stroke-width:1.8482554">
          <path
             d="m 121.1394,69.995471 h 6.48891 l -0.81465,1.126067 h -6.48891 z"
             id="path17751-0-5"
             inkscape:connector-curvature="0"
             style="fill:#ffffff;stroke:#000000;stroke-width:0.24450876;stroke-linejoin:round" />
          <path
             d="m 123.9678,74.705848 2.84083,2.849298 0.81465,-1.126066 -2.84083,-2.849298 z"
             id="path17753-3-01"
             inkscape:connector-curvature="0"
             style="stroke:#000000;stroke-width:0.24450876;stroke-linejoin:round" />
          <g
             style="stroke:#000000;stroke-width:0.9241277"
             id="g17799-4-7"
             transform="matrix(0.26458333,0,0,0.26458333,-10.022234,65.133223)">
            <g
               style="stroke-width:0.9241277;stroke-linejoin:round"
               id="g17783-5-4">
              <path
                 style="fill:#837d7f;stroke-width:0.9241277"
                 inkscape:connector-curvature="0"
                 id="path17777-5-8"
                 d="m 509.49,31.925 h -13.787 l -3.078,4.256 h 13.787 z" />
              <path
                 inkscape:connector-curvature="0"
                 id="path17779-0-7"
                 d="m 492.59,8.246 -0.01,12.802 3.072,-4.255 0.016,-12.803 z m -0.004,40.014 -0.016,12.83 3.078,-4.16 0.016,-12.926 z"
                 style="stroke-width:0.9241277" />
              <path
                 style="fill:#ffffff;stroke-width:0.9241277"
                 inkscape:connector-curvature="0"
                 id="path17781-3-9"
                 d="m 495.67,3.99 a 31.893,31.893 0 0 0 -7.176,-0.833 c -10.026,0.068 -19.817,5.462 -24.959,14.232 5.475,-6.227 13.597,-9.92 21.881,-9.977 2.392,0 4.784,0.283 7.176,0.834 z m -0.004,40.015 c -2.2,1.035 -4.594,1.61 -7.172,1.556 -7.108,-0.147 -15.527,-6.412 -15.82,-15.139 a 14.942,14.942 0 0 1 1.508,-6.414 c -2.773,2.699 -4.546,6.411 -4.588,10.67 0.293,8.727 8.715,14.992 15.822,15.139 2.578,0.053 4.971,-0.52 7.172,-1.557 z" />
            </g>
            <g
               style="stroke-width:0.9241277;stroke-linejoin:round"
               id="g17789-4-8">
              <path
                 inkscape:connector-curvature="0"
                 id="path17785-5-4"
                 d="m 535.84,27.084 4.2,-4 c 0.002,-3.244 0.004,-5.386 -0.027,-6.92 0,0 -1.48,-0.06 -1.84,-0.019 -1.83,0 -2.25,1.134 -2.323,5.88 z"
                 style="stroke-width:0.9241277" />
              <path
                 inkscape:connector-curvature="0"
                 id="path17787-2-6"
                 d="m 551.72,27.081 c -0.216,-16.465 1.23,-18.394 -12.826,-18.394 -5.626,0 -8.745,0.354 -10.491,2.056 0,0 1.907,-2.251 4.676,-4.366 1.812,-1.385 4.87,-1.687 10.063,-1.687 14.056,0 12.61,2.53 12.826,18.995 -0.037,9.641 1.29,10.224 -7.974,15.674 4.546,-3.152 3.697,-4.54 3.726,-12.278 z m 4.5,30.78 10e-4,-8.213 -4.247,3.197 -0.001,8.213 z m -15.929,-8.213 -0.244,-4.413 c 0,-0.673 0.206,-1.09 1.226,-1.81 -4.787,2.805 -5.473,3.178 -5.473,4.407 l 0.244,5.013 z"
                 style="stroke-width:0.9241277" />
            </g>
            <path
               style="stroke-width:0.9241277;stroke-linejoin:round"
               inkscape:connector-curvature="0"
               id="path17791-9-7"
               d="m 564.02,10.203 c 1.79,-2.054 5.059,-2.55 10.975,-2.55 14.835,0 12.979,3.131 12.979,26.242 0,0.374 -0.003,0.782 0,1.2 0,16.532 0.95,22.84 -3.939,25.093 1.707,-0.708 4.214,-3.23 6.052,-5.179 2.825,-3.055 2.134,-9.718 2.134,-23.81 -0.003,-0.419 0,-0.826 0,-1.201 0,-23.11 1.257,-25.542 -13.579,-25.542 -5.054,0 -8.349,0.362 -10.497,1.748 z" />
            <path
               inkscape:connector-curvature="0"
               id="path17793-29-4"
               d="m 574.94,54.104 c -4.35,-0.027 -4.357,-1.843 -4.191,-19.375 -0.031,-17.374 0.016,-19.386 4.263,-19.375 0.229,0 0.265,-0.013 0.47,0 -0.568,2.644 -0.502,7.338 -0.486,16.179 -0.16,16.965 -0.208,19.099 3.733,19.25 -0.534,2.85 -1.571,3.31 -3.789,3.322 z"
               style="stroke-width:0.9241277" />
            <path
               style="fill:#ffffff;stroke-width:0.9241277;stroke-linejoin:round"
               inkscape:connector-curvature="0"
               id="path17795-4-3"
               d="m 590.06,7.04 c -1.85,-2.163 -5.237,-2.585 -11.417,-2.585 -5.054,0 -8.171,-0.023 -10.319,1.363 l -4.304,4.385 c 1.791,-2.054 5.06,-2.55 10.975,-2.55 6.402,0 9.695,0.582 11.371,3.102 z m -54.01,45.805 4.247,-3.197 h 15.93 l -4.247,3.197 z" />
            <path
               style="fill:#ffffff;stroke-width:0.9241277;stroke-linecap:round;stroke-linejoin:round"
               inkscape:connector-curvature="0"
               id="path17797-3-0"
               d="m 549.95,10.925 c -1.633,-1.858 -4.818,-2.238 -11.051,-2.238 -5.626,0 -8.745,0.355 -10.491,2.057 0,0 1.907,-2.252 4.676,-4.367 1.812,-1.385 4.87,-1.687 10.063,-1.687 5.875,0 9.042,0.442 10.754,2.159 z" />
          </g>
          <path
             id="path17801-0-4"
             d="m 120.30358,81.321754 a 7.7655208,7.7655208 0 0 1 -1.89309,0.231511 c -3.7473,-0.09684 -7.10671,-2.820459 -7.53798,-6.511396 a 6.9254687,6.9254687 0 0 1 -0.046,-0.733689 c 0.11906,-4.282546 3.79016,-7.1882 7.58402,-7.21413 0.63288,0 1.2655,0.07488 1.89838,0.220663 l -0.004,3.38746 c -0.5768,-0.286279 -1.20809,-0.432064 -1.89442,-0.427566 -2.22594,0.01402 -4.16322,1.724025 -4.18624,4.033573 0.0775,2.308753 2.30558,3.966897 4.18624,4.005526 0.68209,0.01402 1.31524,-0.138112 1.89759,-0.412221 z"
             style="fill:#294912;stroke-width:0.48901752"
             inkscape:connector-curvature="0" />
          <path
             id="path17803-9-4"
             d="m 120.32475,71.121538 h 6.48891 l -2.84084,2.849298 h -3.64781 z"
             style="fill:#372f8f;stroke:#000000;stroke-width:0.24450876;stroke-linecap:round;stroke-linejoin:round"
             inkscape:connector-curvature="0" />
          <path
             id="path17805-3-1"
             d="m 120.31681,77.55541 h 6.48891 l -2.84083,-2.849297 h -3.64781 z"
             style="fill:#e53c32;stroke:#000000;stroke-width:0.24450876;stroke-linejoin:round"
             inkscape:connector-curvature="0" />
          <path
             id="path17807-2-8"
             d="m 117.20002,81.429969 c -3.23612,-0.579438 -5.94413,-3.099594 -6.32804,-6.387571 a 6.9254687,6.9254687 0 0 1 -0.0463,-0.733954 c 0.11906,-4.282546 3.79015,-7.1882 7.58401,-7.214129 0.63289,0 1.26577,0.07488 1.89865,0.220662 l -0.004,3.387461 c -0.5768,-0.286279 -1.20836,-0.432065 -1.89442,-0.427567 -2.22594,0.01429 -4.16348,1.724025 -4.1865,4.033573 0.0775,2.308754 2.30558,3.966898 4.18623,4.005527 0.6821,0.01402 1.31551,-0.138113 1.8976,-0.411956 l -5.3e-4,0.414602 z"
             style="fill:#61a53c;stroke-width:0.48901752"
             inkscape:connector-curvature="0" />
          <g
             style="stroke:#000000;stroke-width:0.9241277;stroke-linecap:round;stroke-linejoin:round"
             id="g17813-5-35"
             transform="matrix(0.26458333,0,0,0.26458333,-10.022234,65.133223)">
            <path
               inkscape:connector-curvature="0"
               id="path17809-3-9"
               d="m 415.13,3.954 5.79,42.559 -4.592,3.482 -5.789,-42.56 z m 18.42,3.482 -7.697,54.47 4.59,-3.481 7.698,-54.471 z"
               style="stroke-width:0.9241277" />
            <path
               style="fill:#ffffff;stroke-width:0.9241277"
               inkscape:connector-curvature="0"
               id="path17811-9-8"
               d="m 410.54,7.436 h -11.432 l 4.59,-3.482 h 11.433 z m 27.6,-3.482 h -11.432 l -4.59,3.482 h 11.431 z" />
          </g>
          <path
             id="path17815-9-5"
             d="m 95.575616,67.100665 2.0365,14.411854 h 5.038994 l 2.03676,-14.411854 h -3.02471 L 100.13175,78.360802 98.600076,67.1004 Z"
             style="fill:#f05522;stroke-width:0.48901752"
             inkscape:connector-curvature="0" />
          <path
             id="path17817-6-3"
             d="m 103.51312,75.411756 1.17449,-8.311091 h -3.02472 l -1.53114,11.260402 -1.531944,-11.260402 h -3.02419 l 2.01348,14.248077 z"
             style="fill:#d71549;stroke-width:0.48901752"
             inkscape:connector-curvature="0" />
          <path
             id="path17819-9-2"
             d="m 104.62702,67.540138 0.0622,-0.439473 h -3.02472 l -0.5424,3.987006 z m -5.241134,5.325798 -0.78423,-5.765271 h -3.02471 l 1.18163,8.362156 z"
             style="fill:#382e8f;stroke-width:0.48901752"
             inkscape:connector-curvature="0" />
          <path
             id="path17821-3-0"
             d="m 95.575616,67.110984 2.0365,14.401799 h 5.038994 l 2.03676,-14.412118 h -3.02471 L 100.13175,78.361067 98.600076,67.1004 h -3.00038 c -0.0114,0 -0.0114,0.02196 -0.0191,0.02699 z"
             style="fill:none;stroke:#000000;stroke-width:0.24450876;stroke-linecap:round;stroke-linejoin:round"
             inkscape:connector-curvature="0" />
          <g
             style="stroke:#000000;stroke-width:0.9241277"
             id="g17831-8-5"
             transform="matrix(0.26458333,0,0,0.26458333,-10.022234,65.133223)">
            <path
               style="fill:#ffffff;stroke-width:0.9241277;stroke-linecap:square;stroke-linejoin:round"
               inkscape:connector-curvature="0"
               id="path17823-3-1"
               d="m 526.07,27.09 h 9.725 c 0.006,-8.96 0.007,-11.045 2.38,-11.045 0.36,-0.042 1.695,0.05 1.695,0.05 2.33,-0.05 2.02,2.311 2.075,12.814 0.156,4.02 -2.293,4.885 -6.478,6.928 -5.645,3.342 -9.56,4.915 -9.363,9.964 l -0.096,15.257 h 25.965 l 0.002,-8.213 h -15.93 l -0.244,-5.013 c 0,-1.408 0.9,-1.692 7.885,-5.818 9.327,-5.509 8,-5.291 8.036,-14.933 -0.216,-16.465 1.23,-18.394 -12.826,-18.394 -13.088,0 -12.613,1.919 -12.824,18.26 z" />
            <path
               style="fill:#ffffff;stroke-width:0.9241277"
               inkscape:connector-curvature="0"
               id="path17825-3-8"
               d="m 575,7.652 c -14.868,0 -13.012,3.135 -13.012,26.242 0.003,0.42 0,0.827 0,1.202 0,23.108 -1.856,26.242 13.012,26.242 14.835,0 12.979,-3.132 12.979,-26.242 -0.003,-0.42 0,-0.827 0,-1.202 0,-23.11 1.856,-26.242 -12.979,-26.242 z m 0.01,7.702 c 4.248,0.01 4.248,1.936 4.309,19.375 -0.061,17.472 -0.061,19.351 -4.381,19.374 -4.35,-0.026 -4.357,-1.842 -4.192,-19.375 -0.03,-17.374 0.016,-19.386 4.264,-19.375 z" />
            <path
               style="stroke-width:0.9241277;stroke-linecap:round;stroke-linejoin:round"
               inkscape:connector-curvature="0"
               id="path17827-6-02"
               d="m 451.23,7.436 -0.17,54.47 4.11,-3.481 0.17,-54.471 z" />
            <path
               style="fill:#ffffff;stroke-width:0.9241277;stroke-linecap:round;stroke-linejoin:round"
               inkscape:connector-curvature="0"
               id="path17829-5-9"
               d="m 455.34,3.954 h -11.432 l -4.11,3.482 h 11.432 z" />
          </g>
          <path
             id="path17833-8-6"
             d="m 106.34152,81.512519 h 2.97974 l 0.045,-14.411854 h -3.02472 z"
             style="fill:#fcb61e;stroke-width:0.48901752"
             inkscape:connector-curvature="0" />
          <path
             id="path17835-2-3"
             d="m 109.33925,75.700417 0.0267,-8.599752 h -3.02445 v 11.582929 z"
             style="fill:#f05522;stroke-width:0.48901752"
             inkscape:connector-curvature="0" />
          <path
             id="path17837-3-90"
             d="m 109.35777,69.563142 0.008,-2.462742 h -3.02471 v 5.470261 z"
             style="fill:#d71549;stroke-width:0.48901752"
             inkscape:connector-curvature="0" />
          <path
             id="path17839-0-2"
             d="m 112.87937,79.163812 c -1.08161,-1.10146 -1.81954,-2.52042 -2.0066,-4.121414 a 6.9254687,6.9254687 0 0 1 -0.0463,-0.733954 c 0.11933,-4.282546 3.79016,-7.1882 7.58402,-7.214129 0.63288,0 1.26577,0.07488 1.89865,0.220662 l -0.004,3.387461 c -0.57679,-0.286279 -1.20835,-0.432065 -1.89442,-0.427567 -2.22594,0.01429 -4.16348,1.724025 -4.1865,4.033573 0.0317,0.948531 0.42677,1.78726 1.0115,2.448983 z"
             style="fill:#fcb61e;stroke-width:0.48901752"
             inkscape:connector-curvature="0" />
          <path
             id="path17841-6-8"
             d="m 110.82621,74.308444 c 0.1143,-4.102364 3.48773,-6.941344 7.10618,-7.195608 z"
             style="fill:#f05522;stroke-width:0.48901752"
             inkscape:connector-curvature="0" />
          <path
             id="path17843-3-0"
             d="m 120.30358,81.321754 a 7.7655208,7.7655208 0 0 1 -1.89309,0.231511 c -3.7473,-0.09684 -7.10671,-2.820459 -7.53798,-6.511396 a 6.9254687,6.9254687 0 0 1 -0.046,-0.733689 c 0.11906,-4.282546 3.79016,-7.1882 7.58402,-7.21413 0.63288,0 1.2655,0.07488 1.89838,0.220663 l -0.004,3.38746 c -0.5768,-0.286279 -1.20809,-0.432064 -1.89442,-0.427566 -2.22594,0.01402 -4.16322,1.724025 -4.18624,4.033573 0.0775,2.308753 2.30558,3.966897 4.18624,4.005526 0.68209,0.01402 1.31524,-0.138112 1.89759,-0.412221 z"
             style="fill:none;stroke:#000000;stroke-width:0.24450876"
             inkscape:connector-curvature="0" />
          <path
             id="path17845-4-6"
             d="m 106.36533,81.512519 h 2.95355 l 0.045,-14.411854 h -3.02501 v 14.383014 c 0,0.02884 0,0.02884 0.0259,0.02884 z"
             style="fill:none;stroke:#000000;stroke-width:0.24450876;stroke-linecap:round;stroke-linejoin:round"
             inkscape:connector-curvature="0" />
        </g>
        <text
           xml:space="preserve"
           style="font-style:normal;font-variant:normal;font-weight:bold;font-stretch:normal;font-size:4.93889px;line-height:1;font-family:'Microgramma D Extended';-inkscape-font-specification:'Microgramma D Extended Bold';font-variant-ligatures:normal;font-variant-caps:normal;font-variant-numeric:normal;text-align:end;letter-spacing:0px;word-spacing:0px;writing-mode:lr-tb;text-anchor:end;fill:#000000;fill-opacity:1;stroke:none;stroke-width:0.264583"
           x="111.59926"
           y="40.881634"
           id="text22782-7-6-9"><tspan
             sodipodi:role="line"
             id="tspan22780-0-3-8"
             x="111.59926"
             y="40.881634"
             style="font-style:normal;font-variant:normal;font-weight:bold;font-stretch:normal;font-family:'Microgramma D Extended';-inkscape-font-specification:'Microgramma D Extended Bold';text-align:end;text-anchor:end;stroke-width:0.264583">Super Expander</tspan><tspan
             sodipodi:role="line"
             x="111.59926"
             y="45.820522"
             style="font-style:normal;font-variant:normal;font-weight:bold;font-stretch:normal;font-family:'Microgramma D Extended';-inkscape-font-specification:'Microgramma D Extended Bold';text-align:end;text-anchor:end;stroke-width:0.264583"
             id="tspan38691">with 3k RAM</tspan></text>
      </g>
    </g>
  </g>
</svg>
